<?xml version="1.0" standalone="no"?>
<!DOCTYPE svg PUBLIC "-//W3C//DTD SVG 20010904//EN"
 "http://www.w3.org/TR/2001/REC-SVG-20010904/DTD/svg10.dtd">
<svg version="1.0" xmlns="http://www.w3.org/2000/svg"
 width="480.000000pt" height="449.000000pt" viewBox="0 0 480.000000 449.000000"
 preserveAspectRatio="xMidYMid meet">

<g transform="translate(0.000000,449.000000) scale(0.100000,-0.100000)"
fill="#000000" stroke="none">
<path d="M506 4419 c-62 -15 -153 -68 -197 -116 -22 -24 -55 -74 -72 -111
l-32 -67 0 -1896 0 -1895 37 -76 c45 -91 103 -147 196 -191 l67 -32 1048 -3
1047 -2 0 900 0 900 -300 0 -300 0 0 300 0 300 300 0 300 0 0 208 c0 315 24
464 101 618 65 132 181 245 311 302 26 11 87 31 135 44 81 21 106 23 323 21
129 0 264 -5 300 -10 l65 -8 3 -287 2 -286 -227 -4 c-254 -4 -274 -9 -337 -74
-59 -60 -68 -104 -74 -326 l-4 -198 317 0 318 0 -6 -27 c-3 -16 -22 -151 -43
-300 l-38 -273 -273 0 -273 0 0 -900 0 -901 548 3 548 3 76 37 c91 45 147 103
191 196 l32 67 0 1895 0 1895 -32 67 c-44 93 -100 151 -191 196 l-76 37 -1875
2 c-1110 0 -1892 -3 -1915 -8z"/>
</g>
</svg>
