<?xml version="1.0" standalone="no"?>
<!DOCTYPE svg PUBLIC "-//W3C//DTD SVG 20010904//EN"
 "http://www.w3.org/TR/2001/REC-SVG-20010904/DTD/svg10.dtd">
<svg version="1.0" xmlns="http://www.w3.org/2000/svg"
 width="1920.000000pt" height="960.000000pt" viewBox="0 0 1920.000000 960.000000"
 preserveAspectRatio="xMidYMid meet">

<g transform="translate(0.000000,960.000000) scale(0.100000,-0.100000)"
fill="#000000" stroke="none">
<path d="M3535 8023 c-1452 -36 -2289 -98 -3442 -254 l-93 -13 0 -45 c0 -25 9
-278 22 -562 l22 -515 66 -28 c142 -58 285 -168 366 -282 102 -143 143 -269
209 -649 210 -1197 437 -2008 725 -2586 194 -388 391 -645 645 -840 499 -383
934 -563 1555 -645 193 -25 717 -30 995 -10 1142 86 2053 382 2651 864 379
304 922 1089 1234 1782 184 408 282 709 414 1274 37 160 90 261 191 362 64 65
97 90 165 123 124 60 193 75 340 75 147 0 216 -15 338 -75 140 -68 255 -195
318 -349 14 -35 41 -134 60 -220 130 -590 323 -1102 617 -1635 294 -533 701
-1079 977 -1310 596 -497 1520 -804 2685 -891 270 -20 812 -15 993 10 640 87
1077 270 1577 661 88 69 227 207 302 300 89 111 211 305 296 473 306 600 540
1423 752 2637 66 379 107 506 209 649 81 114 224 224 366 282 l66 28 22 515
c13 284 22 537 22 562 l0 45 -92 13 c-1003 136 -1781 200 -2923 241 -484 18
-1856 25 -2042 11 -837 -64 -1801 -231 -2408 -419 -243 -75 -339 -114 -595
-237 -320 -155 -470 -204 -730 -240 -186 -25 -755 -38 -1158 -26 -598 18 -749
52 -1192 266 -256 123 -352 162 -595 237 -588 182 -1512 345 -2333 413 -143
12 -327 15 -840 13 -361 -1 -702 -3 -757 -5z m2145 -568 c658 -14 1293 -164
1685 -400 445 -267 629 -579 700 -1190 20 -167 22 -489 5 -660 -90 -920 -523
-1794 -1180 -2383 -235 -211 -589 -384 -1073 -526 -484 -142 -936 -213 -1427
-223 -387 -8 -674 19 -975 92 -545 131 -901 351 -1219 750 -467 588 -702 1158
-816 1980 -74 529 -88 972 -41 1208 96 476 363 801 856 1042 436 213 873 296
1650 314 304 7 1441 5 1835 -4z m9840 1 c668 -29 1092 -118 1485 -311 356
-174 593 -393 738 -681 41 -82 95 -247 119 -367 68 -333 -15 -1274 -158 -1807
-145 -538 -385 -996 -751 -1435 -116 -139 -227 -246 -342 -328 -351 -253 -805
-400 -1386 -448 -176 -15 -640 -6 -825 15 -650 75 -1238 234 -1685 458 -230
115 -384 233 -602 461 -787 826 -1163 2108 -928 3159 88 392 273 650 621 866
398 247 1000 395 1704 420 244 9 1799 7 2010 -2z m-14200 -351 l0 -95 -415 0
-415 0 0 95 0 95 415 0 415 0 0 -95z m17390 0 l0 -95 -415 0 -415 0 0 95 0 95
415 0 415 0 0 -95z"/>
</g>
</svg>
