<?xml version="1.0" standalone="no"?>
<!DOCTYPE svg PUBLIC "-//W3C//DTD SVG 20010904//EN"
 "http://www.w3.org/TR/2001/REC-SVG-20010904/DTD/svg10.dtd">
<svg version="1.0" xmlns="http://www.w3.org/2000/svg"
 width="512.000000pt" height="512.000000pt" viewBox="0 0 512.000000 512.000000"
 preserveAspectRatio="xMidYMid meet">

<g transform="translate(0.000000,512.000000) scale(0.100000,-0.100000)"
fill="#000000" stroke="none">
<path d="M2046 4724 c-185 -45 -342 -200 -391 -385 -9 -33 -15 -102 -15 -176
l0 -122 -682 -3 c-675 -3 -684 -3 -729 -24 -57 -26 -118 -85 -144 -139 -19
-39 -20 -68 -23 -865 l-2 -825 31 -63 c33 -68 92 -120 159 -142 19 -6 458 -87
975 -180 517 -94 950 -172 963 -175 l22 -5 0 162 c0 150 2 167 24 213 27 59
88 117 142 136 26 9 87 14 184 14 176 0 218 -12 283 -85 59 -65 67 -100 67
-284 l0 -156 23 5 c12 3 447 82 967 175 520 94 962 178 984 186 86 33 146 103
171 201 22 86 22 1541 0 1627 -28 108 -104 186 -207 213 -41 10 -191 13 -709
13 l-657 0 -4 148 c-4 120 -9 157 -26 202 -57 145 -174 260 -327 321 l-60 24
-480 2 c-389 1 -491 -1 -539 -13z m981 -249 c61 -18 144 -89 176 -149 18 -34
22 -62 25 -163 l4 -123 -671 0 -671 0 0 103 c0 138 16 185 89 257 90 89 85 89
577 89 347 1 429 -2 471 -14z"/>
<path d="M2393 1994 c-18 -9 -42 -31 -53 -49 -19 -30 -20 -50 -20 -286 0 -285
3 -299 73 -332 50 -24 284 -24 334 0 70 33 73 47 73 333 0 286 -3 300 -73 333
-49 24 -287 24 -334 1z"/>
<path d="M220 1247 c0 -703 -2 -680 81 -771 36 -40 65 -61 105 -75 55 -21 61
-21 2154 -21 2090 0 2099 0 2154 20 65 25 130 86 160 150 21 44 21 59 24 678
l3 634 -28 -6 c-15 -3 -455 -89 -978 -191 -522 -103 -958 -188 -967 -191 -13
-4 -18 -16 -18 -42 0 -91 -86 -198 -181 -226 -72 -22 -267 -21 -340 0 -97 29
-179 135 -179 232 0 25 -5 33 -22 37 -35 8 -1957 385 -1963 385 -3 0 -5 -276
-5 -613z"/>
</g>
</svg>
