<?xml version="1.0" standalone="no"?>
<!DOCTYPE svg PUBLIC "-//W3C//DTD SVG 20010904//EN"
 "http://www.w3.org/TR/2001/REC-SVG-20010904/DTD/svg10.dtd">
<svg version="1.0" xmlns="http://www.w3.org/2000/svg"
 width="1074.000000pt" height="1188.000000pt" viewBox="0 0 1074.000000 1188.000000"
 preserveAspectRatio="xMidYMid meet">

<g transform="translate(0.000000,1188.000000) scale(0.100000,-0.100000)"
fill="#000000" stroke="none">
<path d="M4144 8552 c-137 -48 -243 -139 -309 -263 -69 -132 -65 27 -65 -2269
0 -2296 -4 -2137 65 -2269 66 -124 172 -215 309 -263 l81 -28 975 0 975 0 81
28 c135 47 244 140 308 262 70 133 66 -27 66 2270 0 2297 4 2137 -66 2270 -64
122 -173 215 -308 262 l-81 28 -975 0 -975 0 -81 -28z m2038 -180 c107 -35
202 -130 239 -237 20 -58 21 -4156 1 -4225 -31 -107 -139 -213 -247 -245 -80
-23 -1870 -23 -1950 0 -108 32 -216 138 -247 245 -20 69 -19 4167 1 4225 36
105 132 201 235 236 47 16 124 18 982 18 875 1 934 0 986 -17z"/>
<path d="M4902 8248 c-16 -16 -15 -33 4 -52 13 -14 54 -16 294 -16 240 0 281
2 294 16 9 8 16 21 16 28 0 33 -22 36 -310 36 -209 0 -289 -3 -298 -12z"/>
<path d="M4123 8040 c-14 -6 -24 -21 -28 -42 -3 -18 -4 -833 -3 -1811 3 -1747
3 -1779 22 -1793 30 -21 2142 -21 2172 0 19 14 19 44 19 1820 0 1468 -2 1807
-13 1818 -10 10 -220 13 -1080 15 -606 1 -1076 -2 -1089 -7z m2077 -1830 l0
-1730 -1000 0 -1000 0 0 1730 0 1730 1000 0 1000 0 0 -1730z"/>
<path d="M5146 4309 c-95 -15 -192 -101 -217 -192 -6 -23 -9 -74 -7 -114 4
-59 10 -80 38 -123 55 -85 137 -130 240 -130 103 0 185 45 241 132 33 50 34
57 34 148 0 85 -3 100 -27 141 -63 107 -173 158 -302 138z m127 -113 c18 -7
47 -29 64 -49 99 -113 14 -297 -137 -297 -151 0 -236 184 -137 297 17 20 45
42 62 49 39 17 107 17 148 0z"/>
</g>
</svg>
