<?xml version="1.0" standalone="no"?>
<!DOCTYPE svg PUBLIC "-//W3C//DTD SVG 20010904//EN"
 "http://www.w3.org/TR/2001/REC-SVG-20010904/DTD/svg10.dtd">
<svg version="1.0" xmlns="http://www.w3.org/2000/svg"
 width="91.000000pt" height="75.000000pt" viewBox="0 0 91.000000 75.000000"
 preserveAspectRatio="xMidYMid meet">

<g transform="translate(0.000000,75.000000) scale(0.100000,-0.100000)"
fill="#000000" stroke="none">
<path d="M194 571 c-52 -13 -98 -48 -124 -93 -22 -37 -25 -56 -25 -133 0 -77
3 -96 25 -133 23 -40 73 -82 99 -82 22 0 11 31 -23 65 -78 78 -67 264 18 316
34 21 115 26 146 9 15 -8 19 -5 22 15 3 14 0 26 -7 29 -27 10 -102 14 -131 7z"/>
<path d="M550 545 l0 -25 140 0 140 0 0 25 0 25 -140 0 -140 0 0 -25z"/>
<path d="M367 504 c-2 -15 1 -42 9 -60 18 -43 18 -155 0 -197 -21 -50 -70 -87
-117 -87 -35 0 -39 -2 -39 -26 0 -26 1 -26 48 -19 57 9 77 18 120 58 76 73 81
267 8 336 l-23 22 -6 -27z"/>
<path d="M550 300 l0 -180 30 0 30 0 0 110 0 110 95 0 c95 0 95 0 95 25 0 25
0 25 -95 25 l-95 0 0 45 c0 43 -1 45 -30 45 l-30 0 0 -180z"/>
</g>
</svg>
