<?xml version="1.0" standalone="no"?>
<!DOCTYPE svg PUBLIC "-//W3C//DTD SVG 20010904//EN"
 "http://www.w3.org/TR/2001/REC-SVG-20010904/DTD/svg10.dtd">
<svg version="1.0" xmlns="http://www.w3.org/2000/svg"
 width="1048.000000pt" height="1149.000000pt" viewBox="0 0 1048.000000 1149.000000"
 preserveAspectRatio="xMidYMid meet">

<g transform="translate(0.000000,1149.000000) scale(0.100000,-0.100000)"
fill="#000000" stroke="none">
<path d="M820 10656 c0 -3 0 -682 0 -1508 l0 -1503 300 -3 300 -2 0 568 0 569
368 6 c589 9 725 32 926 151 141 84 281 246 342 396 102 252 92 635 -22 863
-97 191 -270 343 -469 412 -126 43 -194 47 -987 52 -417 2 -758 2 -758 -1z
m1360 -528 c185 -49 304 -184 317 -360 15 -204 -94 -371 -282 -431 -83 -27
-216 -37 -512 -37 l-283 0 0 426 0 426 353 -5 c265 -3 366 -8 407 -19z"/>
<path d="M4175 9864 c-496 -76 -834 -428 -911 -945 -35 -238 12 -552 114 -754
117 -235 290 -386 557 -489 276 -106 627 -106 892 0 189 76 371 224 492 402
183 270 240 648 150 997 -89 347 -361 637 -704 749 -165 53 -400 70 -590 40z
m330 -469 c191 -50 327 -198 386 -420 31 -116 31 -344 1 -467 -46 -189 -148
-324 -298 -395 -70 -34 -86 -37 -185 -41 -89 -4 -119 -1 -177 17 -174 53 -303
196 -359 401 -26 94 -26 407 0 499 60 211 218 375 398 410 71 14 170 12 234
-4z"/>
<path d="M6702 9865 c-97 -22 -255 -117 -331 -199 -14 -14 -28 -26 -33 -26 -4
0 -8 43 -8 95 l0 95 -265 0 -265 0 0 -1095 0 -1095 288 2 287 3 6 600 c7 637
12 714 59 857 58 172 165 258 320 258 66 0 165 -28 229 -65 24 -14 45 -24 47
-23 5 6 174 484 174 495 0 14 -119 70 -189 89 -81 22 -243 27 -319 9z"/>
<path d="M8557 9865 c-180 -31 -333 -95 -421 -176 l-56 -51 0 96 0 96 -270 0
-270 0 0 -1095 0 -1095 288 2 287 3 6 670 c4 369 9 684 13 700 4 17 12 53 18
80 35 161 160 285 333 330 180 46 340 -19 417 -169 43 -85 48 -169 55 -913 l6
-703 284 0 284 0 -3 838 c-4 823 -4 838 -25 914 -70 249 -215 391 -471 460
-99 27 -358 34 -475 13z"/>
<path d="M1545 5568 c-3 -7 -4 -764 -3 -1683 l3 -1670 323 0 323 0 -1 590 c0
840 11 985 86 1140 69 144 193 230 368 256 129 19 273 -18 349 -89 16 -15 40
-47 54 -71 57 -95 56 -86 62 -991 l6 -835 325 0 325 0 0 840 c-1 1027 -3 1054
-104 1260 -93 188 -241 300 -477 360 -288 74 -704 13 -925 -134 -34 -22 -63
-41 -65 -41 -3 0 -4 237 -4 528 0 290 0 533 0 540 0 9 -71 12 -320 12 -247 0
-322 -3 -325 -12z"/>
<path d="M6740 3895 l0 -1685 300 0 299 0 3 91 3 90 55 -39 c109 -77 213 -124
360 -164 110 -29 392 -37 515 -13 184 34 346 122 491 265 169 166 271 375 326
665 29 157 32 514 5 665 -71 409 -246 669 -552 823 -343 172 -819 148 -1140
-57 l-57 -37 6 113 c6 113 25 661 29 858 l2 105 -322 3 -323 2 0 -1685z m1333
286 c81 -28 110 -46 176 -107 94 -86 151 -204 182 -375 19 -101 19 -440 0
-534 -59 -293 -214 -460 -456 -490 -67 -8 -183 16 -264 56 -132 65 -249 227
-291 401 -43 181 -45 472 -4 648 21 92 77 198 140 269 62 68 181 135 269 151
68 12 183 3 248 -19z"/>
<path d="M4133 3758 c4 -979 3 -965 66 -1136 79 -218 242 -360 494 -433 50
-14 114 -22 212 -26 332 -13 581 68 786 255 l54 49 0 -126 0 -126 303 -3 302
-2 0 1220 0 1220 -325 0 -325 0 0 -612 c0 -827 -12 -1004 -75 -1128 -50 -99
-170 -192 -303 -235 -76 -24 -248 -18 -314 12 -69 31 -141 103 -171 171 -44
98 -49 189 -54 1020 l-5 772 -325 0 -324 0 4 -892z"/>
</g>
</svg>
