<?xml version="1.0" standalone="no"?>
<!DOCTYPE svg PUBLIC "-//W3C//DTD SVG 20010904//EN"
 "http://www.w3.org/TR/2001/REC-SVG-20010904/DTD/svg10.dtd">
<svg version="1.0" xmlns="http://www.w3.org/2000/svg"
 width="800.000000pt" height="800.000000pt" viewBox="0 0 800.000000 800.000000"
 preserveAspectRatio="xMidYMid meet">

<g transform="translate(0.000000,800.000000) scale(0.100000,-0.100000)"
fill="#000000" stroke="none">
<path d="M3420 6544 c-107 -46 -164 -178 -128 -296 14 -48 76 -121 118 -138
l30 -12 0 -2077 c0 -1439 3 -2096 11 -2137 35 -194 197 -368 398 -428 72 -21
230 -21 302 0 97 29 171 74 245 148 80 80 135 181 153 280 8 41 11 698 11
2137 l0 2077 30 12 c42 17 104 90 118 138 36 120 -22 251 -130 296 -55 23
-1105 23 -1158 0z m1115 -169 c32 -31 32 -66 1 -102 -23 -27 -28 -28 -140 -31
-110 -4 -117 -5 -136 -29 -52 -66 0 -133 102 -133 l38 0 -2 -2087 -3 -2088
-32 -67 c-42 -90 -110 -160 -192 -201 -61 -30 -72 -32 -171 -32 -99 0 -110 2
-171 32 -82 41 -150 111 -192 201 l-32 67 -3 368 -3 367 100 0 c96 0 100 1
120 26 24 30 26 52 10 87 -16 36 -50 47 -144 47 l-85 0 0 80 0 80 175 0 c173
0 176 0 200 25 27 26 32 70 12 96 -26 34 -55 39 -221 39 l-166 0 0 80 0 80 95
0 c88 0 98 2 120 25 26 25 29 42 19 83 -10 37 -53 52 -149 52 l-85 0 0 80 0
80 95 0 c88 0 98 2 120 25 16 15 25 36 25 55 0 19 -9 40 -25 55 -22 23 -32 25
-120 25 l-95 0 0 80 0 80 175 0 c173 0 176 0 200 25 16 15 25 36 25 55 0 19
-9 40 -25 55 -24 25 -27 25 -200 25 l-175 0 0 80 0 80 95 0 c88 0 98 2 120 25
16 15 25 36 25 55 0 19 -9 40 -25 55 -22 23 -32 25 -120 25 l-95 0 0 80 0 80
85 0 c96 0 139 15 149 52 10 41 7 58 -19 83 -22 23 -32 25 -120 25 l-95 0 0
80 0 80 166 0 c166 0 195 5 221 39 20 26 15 70 -12 96 -24 25 -27 25 -200 25
l-175 0 0 80 0 80 85 0 c94 0 128 11 144 47 16 35 14 57 -10 87 -20 25 -24 26
-120 26 l-99 0 0 360 0 360 199 0 c112 0 211 5 228 10 52 18 68 79 33 123
l-21 26 -275 3 -276 3 -24 28 c-31 36 -31 71 1 102 l24 25 511 0 511 0 24 -25z"/>
</g>
</svg>
