<?xml version="1.0" standalone="no"?>
<!DOCTYPE svg PUBLIC "-//W3C//DTD SVG 20010904//EN"
 "http://www.w3.org/TR/2001/REC-SVG-20010904/DTD/svg10.dtd">
<svg version="1.0" xmlns="http://www.w3.org/2000/svg"
 width="2560.000000pt" height="2560.000000pt" viewBox="0 0 2560.000000 2560.000000"
 preserveAspectRatio="xMidYMid meet">

<g transform="translate(0.000000,2560.000000) scale(0.100000,-0.100000)"
fill="#000000" stroke="none">
<path d="M14985 17824 c-69 -5 -263 -33 -305 -44 -19 -5 -66 -16 -105 -25
-107 -24 -298 -92 -414 -146 -57 -27 -104 -49 -105 -49 -2 0 -55 -31 -120 -70
-94 -57 -315 -213 -336 -239 -3 -3 -45 -42 -93 -86 -76 -68 -167 -163 -267
-281 -14 -16 -48 -60 -76 -99 -151 -206 -260 -414 -347 -660 -102 -291 -148
-653 -125 -981 13 -191 10 -208 -45 -264 -129 -132 -420 -149 -902 -50 -87 17
-249 52 -285 61 -19 4 -53 12 -75 17 -34 8 -97 25 -270 72 -102 28 -441 140
-518 171 -28 11 -61 25 -72 29 -125 49 -193 77 -395 167 -96 42 -317 153 -410
206 -58 33 -125 71 -150 85 -48 27 -63 36 -176 100 -185 106 -529 341 -719
491 -71 56 -236 192 -245 201 -3 3 -18 16 -34 28 -40 31 -211 189 -387 357
-151 145 -207 184 -314 216 -78 24 -137 24 -205 -1 -114 -42 -178 -113 -228
-255 -6 -16 -22 -88 -36 -160 -14 -71 -31 -155 -38 -185 -15 -74 -16 -617 0
-685 6 -27 16 -75 21 -105 28 -150 47 -226 88 -350 24 -74 51 -151 60 -170
128 -280 228 -443 402 -659 64 -79 125 -155 137 -170 70 -87 94 -190 53 -227
-18 -16 -36 -19 -113 -18 -81 2 -107 7 -245 54 -85 28 -195 69 -245 91 -162
71 -185 79 -192 68 -14 -23 14 -334 43 -484 30 -155 34 -171 64 -270 103 -337
288 -661 529 -930 73 -82 180 -187 260 -256 41 -35 77 -66 80 -69 9 -10 209
-150 214 -150 2 0 39 -21 82 -46 42 -25 138 -77 213 -117 244 -128 312 -180
278 -214 -22 -22 -290 -44 -498 -41 -140 2 -180 0 -193 -11 -33 -28 -46 -69
-46 -145 0 -141 42 -253 168 -445 283 -432 787 -824 1262 -981 127 -42 273
-96 301 -110 91 -48 149 -116 149 -175 0 -38 -27 -96 -63 -134 -37 -38 -143
-112 -237 -163 -36 -19 -92 -50 -125 -68 -112 -62 -340 -171 -415 -199 -19 -7
-44 -17 -55 -21 -11 -4 -51 -20 -90 -35 -38 -15 -79 -31 -90 -36 -11 -4 -58
-20 -105 -34 -47 -15 -96 -30 -110 -35 -64 -21 -201 -59 -255 -70 -33 -7 -102
-24 -153 -37 -51 -12 -103 -23 -117 -23 -14 0 -44 -4 -67 -9 -106 -24 -223
-39 -463 -63 -60 -6 -272 -13 -470 -17 l-360 -6 -2 -25 c-2 -14 3 -32 10 -40
32 -40 142 -123 233 -178 216 -130 725 -361 989 -448 55 -18 147 -49 205 -69
93 -33 132 -45 245 -75 17 -5 64 -17 105 -29 163 -44 197 -52 245 -61 28 -5
82 -17 120 -25 112 -26 179 -38 390 -70 244 -38 298 -44 625 -66 205 -13 1089
-6 1215 10 44 6 125 15 180 21 249 27 663 97 825 140 19 5 85 21 145 36 61 14
124 30 140 35 17 5 71 21 120 35 132 38 437 140 520 174 11 4 52 20 90 35 39
15 79 31 90 35 11 4 46 20 78 34 32 14 60 26 62 26 2 0 33 13 67 29 35 15 86
39 113 51 28 12 88 42 135 65 419 207 763 422 1104 689 343 270 794 715 1080
1066 70 85 144 176 166 201 109 130 450 637 581 866 10 17 30 51 45 75 30 46
298 575 326 643 10 22 24 58 33 80 19 47 26 63 54 128 100 224 275 761 331
1017 5 19 15 60 23 90 16 61 39 169 57 270 6 36 15 88 20 115 38 197 47 261
70 485 6 58 16 142 22 187 5 45 13 234 17 420 5 294 9 343 24 374 37 75 163
215 473 524 419 418 484 500 484 609 0 48 -3 57 -27 74 -64 44 -141 38 -423
-36 -174 -46 -249 -56 -300 -41 -102 31 -72 121 106 315 171 187 286 339 345
456 41 81 51 175 24 224 -43 80 -203 82 -380 5 -11 -5 -92 -36 -180 -69 -253
-95 -281 -102 -436 -102 -157 0 -277 21 -455 79 -66 21 -212 79 -229 91 -5 4
-55 31 -110 60 -123 66 -153 83 -202 112 -34 22 -209 109 -258 129 -113 47
-247 91 -345 115 -36 8 -74 17 -85 20 -152 35 -253 45 -495 49 -140 1 -277 1
-305 -1z"/>
</g>
</svg>
