<?xml version="1.0" standalone="no"?>
<!DOCTYPE svg PUBLIC "-//W3C//DTD SVG 20010904//EN"
 "http://www.w3.org/TR/2001/REC-SVG-20010904/DTD/svg10.dtd">
<svg version="1.0" xmlns="http://www.w3.org/2000/svg"
 width="393.000000pt" height="340.000000pt" viewBox="0 0 393.000000 340.000000"
 preserveAspectRatio="xMidYMid meet">

<g transform="translate(0.000000,340.000000) scale(0.100000,-0.100000)"
fill="#000000" stroke="none">
<path d="M1292 2397 l-192 -192 0 -663 0 -662 230 0 230 0 0 -192 0 -193 193
193 192 192 152 0 152 0 330 331 331 331 0 524 0 524 -713 0 -712 0 -193 -193z
m1468 -374 l0 -418 -137 -137 -138 -138 -150 0 -150 0 -167 -167 -168 -168 0
168 0 167 -150 0 -150 0 0 555 0 555 605 0 605 0 0 -417z"/>
<path d="M2410 1920 l0 -220 70 0 70 0 0 220 0 220 -70 0 -70 0 0 -220z"/>
<path d="M2010 1910 l0 -220 70 0 70 0 0 220 0 220 -70 0 -70 0 0 -220z"/>
</g>
</svg>
