<?xml version="1.0" standalone="no"?>
<!DOCTYPE svg PUBLIC "-//W3C//DTD SVG 20010904//EN"
 "http://www.w3.org/TR/2001/REC-SVG-20010904/DTD/svg10.dtd">
<svg version="1.0" xmlns="http://www.w3.org/2000/svg"
 width="2000.000000pt" height="2000.000000pt" viewBox="0 0 2000.000000 2000.000000"
 preserveAspectRatio="xMidYMid meet">
<metadata>
Created by potrace 1.16, written by Peter Selinger 2001-2019
</metadata>
<g transform="translate(0.000000,2000.000000) scale(0.100000,-0.100000)"
fill="#000000" stroke="none">
<path d="M10345 15973 c-253 -56 -343 -87 -405 -139 -19 -16 -30 -23 -26 -15
6 9 5 12 -5 9 -8 -3 -13 -10 -12 -15 1 -5 -32 -43 -73 -84 -41 -40 -74 -70
-74 -65 0 5 -9 1 -20 -9 -22 -20 -27 -40 -7 -29 6 4 4 -2 -7 -14 -10 -12 -23
-20 -28 -19 -6 1 -13 -4 -16 -12 -3 -10 0 -11 9 -5 12 7 12 5 0 -9 -7 -9 -17
-14 -22 -12 -11 7 -32 -33 -24 -45 4 -6 1 -9 -6 -8 -6 2 -14 -3 -17 -11 -3 -9
0 -11 8 -6 9 5 11 4 6 -4 -4 -6 -11 -9 -16 -6 -5 3 -21 -17 -35 -44 -27 -55
-30 -65 -15 -56 6 3 7 -1 4 -9 -3 -9 -11 -14 -17 -13 -6 1 -12 -7 -14 -18 -4
-17 -2 -18 7 -5 10 12 11 12 5 -5 -4 -11 -14 -39 -22 -62 -17 -49 -26 -57 -18
-15 5 23 5 24 -5 9 -7 -10 -10 -27 -7 -38 3 -10 1 -17 -3 -14 -5 3 -11 1 -15
-5 -3 -5 -1 -10 6 -10 6 0 -6 -12 -27 -26 -21 -14 -66 -53 -100 -85 -33 -33
-67 -59 -75 -57 -8 2 -13 -2 -12 -9 1 -6 -4 -17 -12 -23 -8 -7 -15 -9 -15 -5
0 4 -7 2 -15 -5 -21 -18 -19 -35 3 -19 9 7 6 1 -7 -13 -13 -15 -28 -26 -34
-25 -5 1 -12 -4 -15 -12 -3 -9 0 -11 9 -6 8 5 11 4 6 -1 -5 -5 -14 -9 -19 -9
-6 0 -13 -6 -16 -14 -3 -9 0 -11 8 -6 9 5 11 4 6 -4 -4 -6 -11 -9 -16 -6 -12
7 -42 -44 -36 -61 3 -8 1 -12 -4 -9 -11 7 -53 -72 -45 -85 3 -6 1 -18 -4 -27
-8 -14 -11 -15 -11 -3 0 9 -6 5 -15 -10 -17 -30 -19 -44 -5 -35 6 4 5 -5 -2
-20 -7 -16 -14 -21 -19 -14 -4 8 -9 4 -14 -10 -3 -11 -3 -25 0 -31 4 -6 2 -9
-5 -8 -13 4 -84 -153 -73 -161 5 -3 -4 -40 -19 -81 -15 -41 -27 -66 -28 -55
l-1 20 -9 -20 c-5 -11 -9 -27 -9 -35 -1 -13 0 -13 9 0 9 13 10 13 9 0 -1 -22
-17 -58 -18 -40 -2 24 -21 -10 -20 -35 l0 -20 9 20 c11 25 11 -1 0 -35 -7 -21
-8 -22 -10 -5 l-1 20 -9 -20 c-5 -11 -9 -29 -9 -40 l0 -20 9 20 c13 30 12 15
-6 -87 -13 -73 -15 -131 -11 -270 6 -180 -1 -314 -13 -253 l-6 30 -5 -38 c-4
-28 -2 -36 8 -33 39 15 -2 -10 -119 -74 -120 -65 -206 -118 -421 -257 -54 -35
-193 -142 -301 -232 -13 -11 -17 -12 -11 -2 5 9 3 12 -6 9 -8 -3 -14 -10 -14
-18 0 -7 -16 -24 -34 -39 -19 -14 -31 -20 -27 -12 6 9 5 12 -5 9 -8 -3 -14
-10 -14 -17 0 -7 -22 -29 -50 -49 -27 -20 -45 -31 -41 -23 6 9 5 12 -5 9 -8
-3 -13 -10 -12 -15 1 -6 -9 -21 -22 -33 -14 -13 -25 -20 -25 -16 0 5 -7 3 -15
-4 -17 -14 -21 -35 -4 -24 6 3 3 -8 -6 -26 -13 -24 -16 -50 -13 -96 2 -35 0
-58 -4 -51 -14 21 -9 -8 7 -47 9 -20 19 -34 24 -31 5 2 12 -2 15 -11 3 -8 2
-12 -4 -9 -14 9 -13 4 16 -59 14 -31 29 -54 33 -52 4 3 7 -5 7 -17 -1 -12 4
-21 11 -20 7 2 10 -3 7 -11 -6 -17 43 -119 55 -112 4 3 7 -5 7 -17 -1 -12 4
-21 11 -20 7 2 10 -3 7 -10 -6 -16 44 -109 55 -103 4 3 7 -5 7 -17 -1 -12 4
-22 11 -22 6 0 15 -4 20 -9 5 -5 3 -6 -4 -2 -19 11 -16 -2 13 -51 14 -24 29
-41 33 -38 5 2 15 -3 22 -13 13 -15 12 -16 -3 -3 -22 17 -23 8 -2 -24 9 -14
20 -23 24 -20 5 3 12 0 16 -6 5 -8 3 -9 -6 -4 -8 5 -11 3 -8 -6 3 -8 10 -14
15 -14 6 0 15 -4 20 -9 5 -5 2 -6 -6 -1 -9 5 -12 3 -9 -6 3 -8 10 -13 16 -12
6 2 16 -7 23 -18 8 -15 8 -19 0 -15 -17 11 -13 -3 10 -40 11 -19 25 -32 29
-29 5 3 14 -4 20 -16 8 -15 9 -19 1 -15 -14 9 -14 0 0 -25 5 -11 14 -17 19
-14 5 3 12 0 16 -6 4 -8 3 -9 -4 -5 -16 10 -15 1 3 -35 9 -16 20 -27 25 -24 5
3 12 0 16 -6 4 -8 3 -9 -4 -5 -18 11 -14 -3 14 -51 14 -24 29 -41 33 -39 4 3
7 -5 7 -17 -1 -12 4 -22 11 -22 6 0 15 -4 20 -9 5 -5 3 -6 -4 -2 -19 11 -16
-2 13 -51 14 -24 29 -41 34 -38 6 3 7 -1 4 -9 -6 -17 24 -68 36 -61 5 3 12 0
16 -6 5 -8 3 -9 -6 -4 -8 5 -11 3 -8 -6 3 -8 10 -14 15 -14 6 0 15 -4 20 -9 5
-5 2 -6 -6 -1 -9 5 -12 3 -9 -6 3 -8 10 -14 15 -14 6 0 15 -4 20 -9 5 -5 2 -6
-6 -1 -9 5 -12 3 -9 -6 3 -8 10 -13 16 -12 7 2 9 -4 5 -14 -4 -10 -2 -14 4
-10 6 4 17 -1 24 -10 12 -14 12 -16 0 -9 -9 6 -12 5 -9 -5 3 -8 11 -13 17 -11
7 1 10 -2 6 -8 -8 -13 13 -50 28 -47 7 1 11 -6 9 -17 -2 -10 1 -15 6 -12 5 3
16 -2 23 -11 12 -14 12 -16 0 -9 -9 6 -12 4 -9 -5 3 -8 10 -14 15 -14 6 0 15
-4 20 -9 5 -5 2 -6 -6 -1 -9 5 -12 3 -9 -6 3 -8 10 -14 15 -14 6 0 15 -4 20
-9 5 -5 2 -6 -6 -1 -9 5 -12 3 -9 -6 3 -8 10 -14 15 -14 6 0 15 -4 20 -9 5 -5
2 -6 -6 -1 -9 5 -12 3 -9 -6 3 -8 10 -14 15 -14 6 0 15 -4 20 -9 5 -5 3 -6 -4
-2 -7 4 -13 3 -13 -2 0 -12 25 -33 32 -27 3 3 11 -2 19 -12 12 -14 12 -15 0
-9 -9 6 -12 4 -9 -5 3 -8 9 -14 14 -14 5 0 22 -9 37 -20 36 -25 97 -79 78 -69
-9 4 -12 2 -9 -7 3 -8 10 -14 15 -14 6 0 15 -4 20 -9 5 -5 3 -6 -4 -2 -17 9
-16 1 2 -34 16 -31 32 -42 21 -15 -8 22 2 18 15 -6 8 -15 8 -19 0 -15 -7 5
-11 -1 -11 -14 0 -14 4 -19 13 -14 7 4 9 3 4 -2 -5 -5 -14 -9 -20 -9 -5 0 -12
-6 -15 -14 -3 -9 0 -11 9 -6 12 7 12 5 1 -6 -7 -8 -18 -14 -24 -14 -6 0 -13
-6 -16 -14 -3 -9 0 -11 9 -6 8 5 11 4 6 -1 -5 -5 -12 -9 -15 -9 -13 0 -32 -16
-32 -27 0 -6 7 -5 18 3 15 11 15 11 4 -1 -7 -8 -18 -15 -24 -15 -6 0 -13 -6
-16 -14 -3 -9 0 -11 9 -6 8 5 11 4 6 -1 -5 -5 -14 -9 -20 -9 -7 0 -12 -9 -12
-20 0 -11 -6 -20 -14 -20 -8 0 -16 -6 -19 -14 -3 -9 0 -11 9 -6 8 5 11 4 6 -1
-5 -5 -14 -9 -20 -9 -5 0 -12 -6 -15 -14 -3 -9 0 -11 9 -5 12 7 12 5 0 -9 -7
-9 -17 -15 -21 -12 -4 3 -15 -6 -24 -20 -21 -32 -20 -41 2 -24 15 13 16 12 3
-3 -7 -10 -17 -16 -21 -13 -5 3 -18 -10 -29 -29 -23 -37 -27 -51 -10 -40 8 4
7 0 -1 -15 -6 -12 -15 -19 -20 -16 -5 3 -16 -8 -25 -24 -17 -35 -19 -45 -5
-36 6 3 7 -1 4 -9 -3 -9 -11 -13 -17 -9 -6 4 -8 0 -4 -9 3 -9 -1 -38 -9 -65
-9 -26 -16 -89 -17 -140 -1 -50 -5 -84 -9 -75 -6 12 -7 10 -5 -8 1 -14 7 -24
13 -23 6 1 24 -12 40 -30 16 -17 21 -25 12 -18 -10 7 -18 11 -18 8 0 -13 31
-62 37 -59 5 1 11 -17 14 -40 4 -24 12 -61 18 -83 13 -47 13 -69 1 -40 l-9 20
1 -20 c0 -11 4 -31 8 -45 l8 -25 2 25 c2 24 3 23 10 -5 10 -40 10 -296 0 -360
-7 -45 -8 -47 -10 -15 l-2 35 -9 -40 c-4 -22 -8 -51 -7 -65 0 -23 1 -22 8 5
l8 30 0 -30 c0 -16 -4 -43 -8 -60 -7 -28 -8 -29 -10 -5 l-2 25 -8 -25 c-4 -14
-8 -36 -8 -50 l0 -25 8 25 c6 20 8 21 8 5 0 -11 -4 -31 -8 -45 -7 -21 -8 -22
-10 -5 -2 24 -40 -112 -39 -140 1 -17 2 -16 9 5 6 17 7 9 3 -25 -6 -57 -13
-72 -13 -30 0 16 -3 25 -7 21 -4 -4 -8 -53 -9 -109 -1 -119 -23 -592 -30 -654
-3 -24 -10 -42 -16 -40 -7 1 -13 -7 -15 -18 -3 -16 -2 -17 6 -5 18 25 12 4
-20 -77 -16 -43 -37 -83 -45 -89 -15 -12 -20 -29 -5 -20 5 4 4 -8 -2 -24 -10
-26 -13 -28 -19 -13 -3 10 -7 13 -7 6 -1 -6 -4 -19 -8 -29 -4 -12 -3 -15 5
-10 8 5 10 2 6 -8 -3 -9 -9 -15 -12 -14 -4 0 -18 0 -32 -2 -23 -1 -23 -2 -5
-10 56 -24 -18 -4 -163 45 -90 30 -194 60 -230 67 -90 16 -601 16 -907 1 -132
-7 -421 -13 -643 -13 -347 0 -411 2 -455 16 -29 9 -56 21 -62 26 -5 5 3 4 18
-1 16 -6 36 -11 45 -10 9 0 2 6 -16 13 -19 6 -38 20 -44 29 -5 10 -13 15 -18
12 -5 -3 -11 -1 -15 5 -13 21 -106 60 -205 85 -57 14 -163 48 -236 76 -74 27
-140 49 -147 49 -7 0 -24 -8 -37 -17 -14 -10 -27 -16 -30 -15 -2 2 -6 -2 -9
-9 -2 -7 1 -9 9 -4 9 5 11 4 6 -4 -4 -6 -11 -9 -16 -6 -10 6 -50 -65 -50 -87
0 -9 3 -9 10 2 15 22 12 11 -9 -46 -17 -43 -68 -333 -72 -405 -1 -18 -3 -15
-8 11 -7 32 -8 29 -15 -33 -5 -37 -6 -71 -2 -74 3 -4 6 11 6 32 0 21 2 36 5
33 7 -7 -12 -282 -24 -354 -8 -45 -9 -46 -11 -14 l-2 35 -9 -40 c-4 -22 -8
-51 -7 -65 0 -23 1 -23 9 5 7 26 7 24 3 -10 -2 -22 -7 -132 -10 -245 -5 -167
-3 -221 10 -293 9 -48 19 -95 22 -105 5 -14 4 -15 -5 -2 -17 24 -14 -6 4 -41
9 -16 20 -27 25 -24 5 3 12 0 16 -6 5 -8 3 -9 -6 -4 -8 5 -11 3 -8 -6 3 -8 9
-14 14 -14 5 0 24 -10 41 -23 64 -45 128 -37 195 25 14 14 30 24 34 23 5 -1
10 4 13 11 2 8 -1 9 -10 4 -8 -5 -11 -4 -6 1 5 5 14 9 20 9 7 0 13 9 15 20 3
17 1 18 -8 5 -11 -13 -11 -13 -7 0 2 8 12 52 22 98 11 50 23 82 30 82 7 0 18
12 23 28 5 15 13 36 18 46 6 15 4 17 -7 11 -8 -5 -11 -5 -6 1 5 5 14 9 20 9 5
0 12 6 15 14 3 9 0 11 -9 6 -8 -5 -3 4 10 18 14 15 27 25 29 22 7 -7 32 15 32
27 0 6 -8 4 -17 -3 -10 -7 -7 -1 6 13 13 15 28 26 34 25 5 -1 12 4 15 12 3 9
0 11 -9 6 -8 -5 -6 1 5 13 10 12 23 20 28 19 6 -1 13 4 16 12 3 9 0 11 -9 6
-8 -5 -1 6 15 23 16 17 32 29 36 27 4 -2 20 9 35 25 16 17 23 30 16 30 -17 0
68 67 139 109 30 18 67 44 82 58 14 14 30 24 34 23 5 -1 10 4 13 11 2 6 -1 9
-6 6 -6 -4 -8 4 -5 21 5 24 6 24 13 7 6 -17 8 -17 8 -2 1 16 26 17 354 19
l352 3 -365 5 -365 5 354 3 c420 2 515 -8 806 -93 137 -40 294 -73 465 -100
85 -13 196 -36 245 -51 176 -52 302 -85 461 -119 88 -19 208 -46 267 -60 210
-49 336 -30 444 68 31 29 59 51 62 49 3 -2 7 2 10 9 2 8 -1 9 -10 4 -8 -5 -11
-4 -6 1 5 5 14 9 20 9 5 0 12 6 15 14 3 9 0 11 -9 6 -8 -5 -11 -4 -6 1 5 5 14
9 20 9 5 0 12 6 15 14 3 9 0 11 -8 6 -9 -5 -11 -4 -6 4 4 6 11 9 16 6 5 -3 20
14 34 38 28 48 32 62 14 51 -7 -4 -8 -3 -4 5 4 6 11 9 16 6 5 -3 16 8 25 24
18 36 19 45 3 35 -7 -4 -8 -3 -4 5 4 6 11 9 16 6 5 -3 16 8 25 24 18 35 19 45
4 35 -6 -3 -3 8 6 25 9 18 20 29 25 26 11 -7 82 126 75 143 -3 7 0 10 5 7 5
-3 25 26 45 64 38 77 41 86 23 75 -8 -4 -10 -3 -5 2 5 5 14 9 20 9 7 0 12 10
11 22 0 12 4 21 9 20 5 -1 12 4 15 12 3 9 0 11 -8 6 -7 -4 -6 5 4 24 9 17 21
30 27 28 7 -1 14 4 17 12 3 9 0 11 -9 6 -8 -5 -11 -4 -6 1 5 5 13 9 18 9 5 0
18 13 28 28 15 23 19 25 25 12 3 -9 2 -13 -4 -10 -14 9 -12 -1 5 -36 9 -16 19
-27 24 -25 4 3 7 -5 7 -17 -1 -12 4 -22 11 -22 6 0 15 -4 20 -9 5 -5 3 -6 -4
-2 -18 10 -17 8 26 -84 21 -45 41 -76 43 -69 2 7 10 -1 16 -19 6 -18 7 -30 2
-27 -6 4 -10 -1 -10 -9 0 -9 5 -15 11 -14 6 2 21 -32 33 -74 13 -42 19 -75 14
-72 -12 8 -10 -3 7 -37 9 -16 20 -27 24 -24 13 7 21 -19 14 -47 -3 -16 -2 -19
5 -10 13 18 32 -60 32 -129 0 -74 -21 -190 -30 -164 -6 17 -8 16 -14 -10 -5
-18 -3 -31 3 -33 5 -2 7 -10 4 -18 -5 -13 -8 -13 -15 -2 -7 9 -8 4 -4 -15 5
-19 2 -29 -9 -33 -8 -4 -15 -10 -15 -16 0 -5 4 -6 10 -3 6 4 7 -2 1 -17 -5
-13 -14 -22 -20 -20 -6 1 -11 -5 -11 -14 0 -8 4 -13 9 -10 5 4 4 -10 -2 -29
-7 -25 -13 -32 -20 -23 -6 9 -7 5 -3 -12 2 -14 -4 -59 -14 -100 -10 -41 -19
-64 -19 -51 -1 13 -4 21 -8 17 -4 -4 -8 -39 -8 -79 -1 -40 -7 -124 -15 -187
-14 -129 -7 -526 12 -715 7 -60 11 -130 11 -155 -1 -30 1 -38 6 -26 9 24 25
-51 41 -194 10 -84 20 -169 50 -415 5 -38 8 -155 7 -260 l-1 -190 -6 195 -6
195 -2 -203 c-2 -160 1 -202 11 -196 7 4 9 3 4 -2 -5 -5 -14 -9 -20 -9 -7 0
-12 -10 -11 -22 0 -12 -3 -20 -7 -17 -5 2 -13 -4 -18 -15 -13 -23 -14 -34 -3
-28 4 3 7 -115 7 -261 0 -230 3 -272 17 -305 10 -21 12 -35 6 -31 -6 4 -9 1
-6 -7 3 -8 9 -14 14 -14 5 0 29 -12 54 -27 84 -49 147 -61 309 -56 135 4 156
7 286 45 77 23 245 67 373 98 255 61 408 110 492 158 94 53 173 109 234 166
32 31 61 55 64 53 4 -2 8 2 11 9 2 8 -1 9 -10 4 -8 -5 -11 -4 -6 1 5 5 14 9
19 9 6 0 13 6 16 14 3 9 0 11 -9 6 -8 -5 -11 -4 -6 1 5 5 14 9 19 9 6 0 13 6
16 14 3 8 0 11 -7 7 -13 -9 -14 4 -1 24 9 13 10 13 10 0 0 -13 1 -13 10 0 5 8
9 29 9 45 l-1 30 -8 -30 c-6 -24 -8 -18 -9 32 0 34 -5 73 -11 88 -7 19 -7 24
1 19 7 -4 10 -2 8 5 -3 7 -7 11 -11 9 -3 -2 -17 7 -30 18 -53 48 -113 56 -264
34 -157 -22 -240 -11 -461 60 -67 22 -128 40 -134 40 -7 0 -65 24 -128 54 -64
30 -135 57 -158 61 -23 4 -42 10 -42 13 1 4 0 21 -1 37 -3 27 -3 26 -9 -10 -6
-35 -8 -29 -14 45 -17 199 29 889 55 810 6 -18 6 -14 3 15 -3 23 8 107 25 195
16 85 34 178 39 205 7 40 9 44 11 20 l2 -30 8 30 c4 17 8 46 8 65 l-1 35 -8
-35 c-10 -44 -9 -22 23 315 15 168 25 235 28 205 5 -44 6 -43 13 27 5 40 5 88
1 107 -3 20 0 75 7 123 11 74 15 83 21 58 5 -22 6 -19 3 15 -6 59 25 222 37
194 6 -14 7 -11 4 11 -3 17 2 73 10 125 18 123 18 365 -1 555 -8 83 -24 294
-35 470 -23 365 -31 443 -66 608 -14 66 -22 131 -19 150 3 17 1 46 -4 62 -9
29 -9 29 -11 5 0 -14 -14 27 -30 90 -33 127 -34 131 -20 110 11 -17 13 -1 4
25 -5 11 -9 13 -14 6 -3 -7 -11 4 -17 24 -6 19 -7 33 -2 29 5 -3 9 -1 9 4 0 6
-6 12 -14 15 -7 3 -16 15 -19 26 -3 12 -1 19 4 15 5 -3 9 2 9 11 0 9 -4 14 -9
10 -19 -11 -62 169 -56 234 4 38 3 41 -4 16 l-9 -30 -2 35 c-8 98 3 357 17
383 7 15 11 33 7 39 -4 7 -3 8 4 4 13 -8 56 70 48 89 -2 7 6 47 20 89 13 42
29 109 36 149 9 54 13 66 18 47 6 -23 7 -21 14 14 4 21 18 63 32 94 13 30 22
62 19 71 -2 9 0 23 5 31 9 13 10 13 10 0 0 -13 1 -13 10 0 5 8 10 22 10 30 0
13 -2 13 -11 0 -9 -12 -10 -12 -5 3 3 10 6 21 6 23 0 3 5 2 12 -2 8 -5 9 -2 4
11 -4 12 0 24 14 37 11 10 20 26 20 36 0 15 -2 15 -10 2 -15 -22 -12 -9 10 55
11 32 29 67 40 77 11 10 20 23 20 28 0 4 3 16 7 26 4 11 3 15 -5 10 -8 -5 -8
1 0 25 7 20 13 27 18 19 5 -8 11 -2 18 17 5 15 13 37 18 47 5 14 4 17 -4 12
-8 -5 -10 -2 -6 8 3 9 10 13 15 10 5 -3 14 8 20 25 10 29 14 31 67 33 l57 1
-65 6 -65 6 85 6 c71 6 102 14 190 53 140 61 352 177 526 286 172 108 333 194
394 210 75 20 256 120 408 226 35 24 60 39 56 33 -4 -7 -2 -10 5 -8 7 3 12 9
12 14 0 14 61 75 70 69 4 -2 11 6 14 18 4 13 14 31 23 41 17 19 3 24 -17 5
-11 -11 -13 -10 -7 0 4 7 41 28 81 47 41 20 100 59 132 87 32 29 47 40 34 25
-14 -15 -20 -27 -14 -27 15 0 56 47 49 58 -6 10 41 59 52 54 4 -2 8 2 11 9 2
7 -1 9 -10 4 -8 -4 2 9 22 29 19 21 42 38 50 39 8 2 19 6 25 10 16 9 17 126 2
145 -11 13 -11 14 1 7 11 -6 13 -4 8 9 -4 10 -8 27 -8 39 -1 17 -3 15 -9 -8
-7 -29 -8 -29 -9 -4 0 15 -8 43 -16 62 -17 41 -19 59 -5 37 9 -13 10 -13 9 0
0 19 -25 65 -36 65 -14 1 -71 34 -79 46 -4 8 -3 9 4 5 8 -5 12 1 12 16 0 16
-3 19 -8 10 -6 -9 -12 -5 -22 15 -7 15 -12 34 -11 42 1 7 -2 10 -8 7 -5 -4
-13 -1 -17 5 -5 8 -40 10 -123 5 -137 -9 -175 -23 -260 -102 -32 -29 -61 -50
-66 -46 -4 4 -5 -2 -3 -13 2 -13 -2 -19 -11 -17 -8 2 -11 -3 -8 -12 4 -9 1
-15 -5 -13 -6 1 -13 -4 -16 -12 -2 -8 0 -11 6 -7 6 3 3 -17 -6 -45 -12 -36
-18 -45 -22 -33 -6 15 -8 14 -13 -7 -4 -13 -6 -35 -6 -49 1 -23 2 -23 10 5 6
23 7 19 4 -19 -3 -27 -6 -58 -6 -70 -1 -12 -5 -7 -9 14 l-7 35 -2 -35 c0 -20
-7 -42 -13 -49 -11 -12 -9 -13 7 -7 26 9 10 -5 -39 -34 -22 -13 -36 -18 -31
-11 5 9 3 12 -6 9 -8 -3 -14 -10 -14 -16 0 -7 -58 -51 -129 -98 -70 -47 -125
-80 -121 -74 5 8 3 11 -6 8 -8 -3 -13 -10 -12 -16 2 -6 -25 -31 -60 -56 -34
-24 -73 -56 -87 -71 -59 -64 -291 -153 -520 -199 -165 -33 -180 -35 -180 -24
0 5 -4 7 -9 3 -5 -3 -13 0 -17 6 -4 8 -3 9 4 5 8 -5 12 1 12 16 0 16 -3 19 -9
10 -13 -21 -21 21 -20 108 0 66 15 142 19 100 2 -17 38 57 39 80 1 13 0 13 -9
0 -16 -24 -11 -2 6 33 15 28 16 57 10 237 -4 113 -13 233 -20 267 -7 34 -9 60
-4 57 4 -3 8 -1 8 4 0 6 -7 12 -15 16 -8 3 -15 11 -15 18 0 9 3 8 10 -2 15
-23 12 3 -5 44 -9 20 -19 34 -24 31 -5 -2 -12 2 -15 11 -3 8 -2 12 4 9 15 -9
13 -1 -15 60 -14 31 -30 53 -34 51 -4 -3 -13 6 -20 20 -6 15 -7 23 -1 19 13
-8 13 -3 0 30 -5 14 -14 24 -19 21 -5 -3 -12 1 -15 10 -4 10 -2 13 6 8 7 -5 9
-2 6 7 -3 8 -21 51 -39 97 -18 46 -36 78 -39 71 -10 -15 -41 78 -33 98 4 10 2
14 -4 10 -6 -4 -14 0 -17 9 -9 24 -7 31 4 14 11 -17 13 -1 4 25 -5 12 -9 13
-14 5 -5 -8 -11 0 -18 19 -7 18 -7 29 -2 26 6 -4 10 -1 10 4 0 6 -8 11 -17 11
-13 0 -15 2 -5 8 10 7 10 15 -2 43 -11 24 -15 28 -16 14 -1 -15 -5 -11 -15 14
-17 39 -19 52 -4 31 8 -12 9 -11 6 5 -2 11 -8 19 -14 18 -6 -1 -14 4 -17 13
-3 8 -2 12 4 9 12 -8 12 23 -1 50 -8 17 -9 16 -5 -8 2 -16 0 -25 -5 -20 -14
14 -22 146 -14 219 7 60 9 65 16 39 7 -23 7 -20 4 16 -2 25 0 59 5 75 6 22 9
24 10 9 1 -11 10 7 21 40 21 66 24 88 9 65 -11 -17 -13 -1 -4 25 5 12 9 13 14
5 5 -9 10 -5 15 11 5 14 3 25 -3 27 -6 2 -8 10 -5 18 4 12 8 13 13 4 5 -9 10
-5 15 10 4 14 3 25 -5 30 -9 5 -9 9 -1 14 6 4 11 4 11 -1 1 -7 40 87 40 95 0
2 -5 0 -12 -4 -7 -4 -8 -3 -4 5 4 6 11 9 15 6 10 -6 50 36 48 50 -3 17 69 34
190 46 118 11 156 19 168 39 3 5 10 8 15 5 12 -7 22 12 26 49 15 143 21 171
32 169 7 -2 12 4 12 13 0 8 -5 12 -10 9 -6 -4 -5 5 2 20 7 16 14 21 18 14 8
-12 20 13 19 39 0 16 -1 16 -7 0 -6 -15 -9 -14 -19 7 -6 14 -8 23 -3 20 4 -2
8 6 8 20 0 14 -4 22 -8 20 -5 -3 -6 3 -3 13 2 10 -4 41 -15 69 l-20 52 42 33
c22 18 45 33 50 33 5 0 11 6 14 14 3 8 0 11 -6 7 -6 -4 -7 7 -1 35 8 34 6 45
-12 70 -11 16 -24 27 -28 25 -4 -3 -28 16 -52 42 -24 25 -34 38 -21 28 12 -11
22 -15 22 -9 0 13 -35 45 -42 37 -3 -3 -16 10 -29 28 -15 21 -17 28 -6 19 21
-17 21 -14 -2 31 -10 21 -21 35 -24 31 -12 -12 -28 52 -22 88 4 25 2 41 -8 50
-12 12 2 23 98 77 61 35 139 85 173 113 34 27 65 51 69 52 5 1 7 7 7 14 -1 7
3 11 9 10 6 -1 13 6 15 16 5 23 -6 67 -16 65 -4 0 -25 7 -47 17 -32 14 -58 16
-135 13 -89 -5 -186 -31 -345 -92 -16 -6 -17 -6 -5 3 14 10 13 12 -10 15 -5 0
-15 8 -22 16 -11 12 -11 12 5 1 9 -7 17 -9 17 -3 0 12 -25 34 -32 27 -3 -3
-11 2 -19 12 -12 14 -12 15 0 9 9 -6 12 -4 9 5 -3 8 -10 14 -15 14 -6 0 -15 4
-20 9 -5 5 -3 6 5 2 18 -11 15 2 -14 51 -14 24 -29 41 -34 38 -5 -3 -12 0 -16
6 -5 8 -3 9 6 4 8 -5 11 -3 9 4 -3 7 -7 11 -10 9 -3 -2 -25 14 -49 35 -70 64
-109 77 -235 76 -60 -1 -119 -3 -130 -6z m-814 -1110 c0 -15 2 -15 9 2 6 16 9
13 14 -20 13 -83 44 -241 51 -260 6 -16 5 -17 -4 -5 -8 11 -11 11 -11 2 0 -21
50 -113 59 -107 5 2 15 -3 22 -12 12 -14 12 -16 0 -9 -9 6 -12 5 -10 -3 3 -7
9 -13 14 -13 6 0 30 -17 55 -38 25 -20 63 -47 85 -58 22 -12 33 -21 25 -22
-12 0 -11 -3 3 -11 9 -5 17 -22 18 -37 l1 -27 8 25 c6 20 8 14 8 -25 1 -37 -2
-45 -8 -30 l-9 20 0 -20 c-1 -11 -4 -31 -8 -44 -5 -19 -3 -22 8 -16 8 5 11 4
6 -1 -5 -5 -14 -9 -20 -9 -5 0 -12 -6 -15 -14 -3 -9 0 -11 9 -6 8 5 3 -4 -10
-19 -14 -14 -79 -54 -145 -87 -67 -34 -128 -68 -138 -76 -12 -11 -18 -11 -24
-2 -4 7 -3 10 4 5 6 -3 13 -2 17 4 3 6 -4 10 -17 11 -13 0 -17 3 -10 6 6 2 12
9 12 14 0 6 -5 7 -10 4 -6 -3 -15 6 -20 20 -13 33 -13 44 0 25 11 -17 13 -1 4
25 -5 11 -9 13 -14 6 -3 -7 -11 4 -17 24 -6 19 -7 33 -2 29 15 -9 10 8 -6 20
-25 18 -35 163 -33 466 l3 275 5 -285 5 -285 3 288 2 287 40 0 c31 0 40 -4 41
-17z m-431 -2108 c-14 -8 -20 -14 -13 -15 6 0 14 -10 16 -22 3 -19 5 -17 6 7
3 40 52 -185 55 -255 2 -30 7 -68 11 -85 7 -25 9 -26 15 -11 9 27 38 -115 50
-249 17 -180 50 -463 65 -562 8 -51 14 -107 13 -125 -1 -25 -3 -21 -8 17 -6
44 -7 46 -8 14 -1 -20 -4 -52 -7 -70 -4 -26 -3 -30 4 -14 15 32 12 3 -4 -47
-12 -33 -13 -51 -5 -72 5 -15 14 -25 19 -22 5 3 12 -1 15 -10 4 -10 2 -13 -6
-8 -7 5 -9 -1 -6 -19 3 -16 1 -25 -6 -24 -6 1 -11 -8 -10 -20 0 -12 -3 -20 -7
-18 -4 3 -13 -3 -20 -12 -12 -15 -12 -16 6 -9 11 4 2 -8 -20 -26 -21 -18 -44
-33 -49 -33 -5 0 -11 -6 -14 -14 -3 -8 0 -11 5 -8 6 4 3 -14 -5 -39 -8 -24
-15 -43 -16 -42 -1 2 -10 14 -21 28 l-20 25 23 -19 c22 -19 22 -19 22 3 0 12
-4 20 -9 16 -5 -3 -12 -1 -16 5 -4 6 -10 8 -15 5 -4 -3 -14 3 -21 12 -12 14
-12 16 0 9 9 -6 12 -4 9 5 -3 8 -10 14 -16 14 -6 0 -17 7 -24 15 -11 12 -11
12 5 1 9 -7 17 -9 17 -3 0 12 -25 34 -32 27 -3 -3 -11 2 -19 12 -12 14 -12 15
0 9 9 -6 12 -4 9 5 -3 8 -10 14 -16 14 -5 0 -14 4 -19 9 -5 5 -2 6 6 1 9 -5
12 -3 9 6 -3 8 -10 14 -16 14 -6 0 -17 7 -24 15 -11 12 -11 12 5 1 9 -7 17 -9
17 -3 0 12 -25 34 -32 27 -3 -3 -11 2 -19 12 -12 14 -12 15 0 9 9 -6 12 -4 9
5 -3 8 -10 14 -16 14 -5 0 -14 4 -19 9 -5 5 -2 6 6 1 9 -5 12 -3 9 6 -3 8 -10
14 -16 14 -6 0 -17 6 -24 14 -11 11 -11 13 1 6 9 -5 12 -3 9 6 -3 8 -10 14
-16 14 -6 0 -17 6 -24 14 -11 11 -11 13 1 6 9 -5 12 -3 9 6 -3 8 -9 14 -14 14
-19 0 -33 16 -27 31 3 8 1 14 -4 12 -5 -2 -33 20 -63 47 -30 28 -51 47 -46 43
23 -18 25 -6 5 22 -12 16 -26 27 -30 24 -5 -3 -6 1 -4 9 7 17 -23 89 -34 82
-12 -7 -22 21 -14 42 4 10 2 14 -4 10 -12 -7 -88 171 -78 181 3 3 5 -1 5 -8 0
-7 3 -11 6 -7 3 3 -2 27 -12 52 -11 29 -20 42 -25 34 -4 -7 -20 31 -39 92 -17
57 -38 121 -45 142 -7 20 -9 37 -4 37 16 0 10 19 -11 37 -11 10 -20 22 -20 28
0 5 5 3 10 -5 9 -13 10 -13 10 0 0 8 -5 22 -10 30 -9 13 -10 13 -11 0 0 -10
-3 -8 -9 5 -5 11 -7 36 -4 55 3 27 2 31 -5 15 -8 -16 -10 -17 -10 -3 -1 9 -4
25 -7 35 -5 15 -4 15 5 3 9 -13 11 -11 11 7 0 12 -4 23 -10 25 -5 2 75 38 178
81 103 43 259 115 347 162 88 46 165 84 170 84 6 0 -1 -6 -15 -14z"/>
</g>
</svg>
