<?xml version="1.0" standalone="no"?>
<!DOCTYPE svg PUBLIC "-//W3C//DTD SVG 20010904//EN"
 "http://www.w3.org/TR/2001/REC-SVG-20010904/DTD/svg10.dtd">
<svg version="1.0" xmlns="http://www.w3.org/2000/svg"
 width="512.000000pt" height="364.000000pt" viewBox="0 0 512.000000 364.000000"
 preserveAspectRatio="xMidYMid meet">

<g transform="translate(0.000000,364.000000) scale(0.100000,-0.100000)"
fill="#000000" stroke="none">
<path d="M1400 3579 c-436 -18 -774 -51 -882 -85 -155 -49 -292 -167 -368
-319 -48 -95 -73 -190 -100 -374 -35 -242 -41 -358 -47 -841 -8 -658 10 -979
73 -1290 70 -349 274 -540 619 -579 180 -20 475 -40 770 -51 362 -15 2200 -8
2450 9 237 16 508 40 584 52 143 22 249 78 358 187 144 143 201 327 243 782
17 181 24 1041 11 1295 -22 414 -67 672 -143 819 -61 117 -166 220 -279 274
-46 22 -104 45 -129 50 -101 24 -479 55 -880 72 -271 11 -2005 11 -2280 -1z
m1438 -1359 c375 -195 682 -357 682 -360 0 -4 -1584 -829 -1611 -838 -5 -2 -9
317 -9 841 l0 845 128 -67 c70 -36 435 -226 810 -421z"/>
</g>
</svg>
