<?xml version="1.0" standalone="no"?>
<!DOCTYPE svg PUBLIC "-//W3C//DTD SVG 20010904//EN"
 "http://www.w3.org/TR/2001/REC-SVG-20010904/DTD/svg10.dtd">
<svg version="1.0" xmlns="http://www.w3.org/2000/svg"
 width="513.000000pt" height="126.000000pt" viewBox="0 0 513.000000 126.000000"
 preserveAspectRatio="xMidYMid meet">

<g transform="translate(0.000000,126.000000) scale(0.100000,-0.100000)"
fill="#000000" stroke="none">
<path d="M2173 1147 c-12 -18 -28 -48 -34 -67 -15 -45 -29 -60 -29 -32 0 36
-24 102 -37 102 -15 0 -26 -52 -25 -125 0 -54 -1 -58 -14 -40 -8 11 -17 30
-21 43 -3 12 -9 22 -13 22 -24 0 -27 -89 -5 -150 18 -50 18 -50 6 -50 -5 0
-12 11 -15 24 -3 13 -17 31 -30 40 -23 15 -25 14 -31 -5 -11 -32 13 -82 65
-137 l25 -27 3 34 c2 20 -2 37 -10 42 -10 7 -7 11 9 15 24 7 38 49 31 95 -2
18 2 24 14 23 10 -1 23 12 33 33 12 25 21 32 34 28 33 -10 78 52 96 134 5 26
4 31 -12 31 -10 0 -28 -15 -40 -33z"/>
<path d="M2705 1138 c4 -24 21 -63 38 -87 21 -31 26 -43 14 -38 -9 4 -24 10
-32 13 -23 9 -19 -29 8 -62 12 -16 32 -38 44 -49 15 -13 24 -33 25 -55 1 -19
12 -58 25 -86 27 -60 28 -68 9 -84 -37 -30 -46 -170 -11 -170 24 0 39 42 42
120 2 61 5 74 18 72 17 -3 22 43 5 53 -6 4 -8 10 -5 14 2 5 -8 28 -24 53 -25
40 -27 46 -12 55 14 9 14 14 -8 44 -14 19 -33 40 -43 47 -24 17 -23 28 3 35
13 4 22 0 25 -11 11 -34 21 -47 39 -47 15 0 18 -9 19 -60 1 -52 3 -60 19 -57
15 3 17 -1 13 -17 -3 -12 -9 -30 -12 -42 -4 -15 0 -22 15 -26 26 -7 26 -11 2
-37 -25 -28 -36 -86 -16 -86 22 0 18 -11 -9 -35 -31 -25 -44 -65 -22 -65 15 0
79 32 104 53 17 13 45 67 39 74 -3 2 -22 -3 -42 -12 -44 -18 -56 -13 -31 13
38 39 55 65 61 94 9 37 0 46 -23 25 -34 -31 -43 -18 -17 21 29 45 46 97 38
118 -8 21 -15 17 -47 -26 -35 -46 -43 -46 -23 1 16 41 21 119 8 138 -11 17
-30 6 -41 -25 -16 -40 -25 -27 -22 29 2 35 -2 67 -13 93 l-17 39 -13 -35 c-8
-19 -14 -47 -14 -62 -1 -39 -17 -35 -32 9 -12 37 -64 103 -81 103 -6 0 -7 -18
-3 -42z"/>
<path d="M2182 1019 c-38 -15 -91 -72 -102 -107 -9 -32 -8 -34 14 -28 21 5 21
3 -8 -28 -44 -46 -68 -154 -31 -140 10 4 12 -4 8 -34 -10 -76 23 -162 63 -162
4 0 4 31 2 70 -4 53 -12 79 -32 110 -14 22 -22 40 -17 40 14 0 51 86 53 127 2
27 11 45 31 62 39 33 73 102 50 100 -5 0 -18 -4 -31 -10z"/>
<path d="M693 852 l-42 -3 -6 -62 c-5 -51 -4 -114 4 -245 1 -8 13 -12 36 -10
l35 2 0 63 0 63 65 0 c70 0 65 -5 65 58 0 4 -28 7 -62 7 -59 1 -62 2 -69 28
-9 33 -6 35 76 41 33 3 63 5 66 5 3 1 6 14 7 29 1 28 0 28 -66 27 -37 0 -86
-1 -109 -3z"/>
<path d="M918 842 c-19 -4 -24 -49 -23 -207 l0 -100 38 -1 c38 -1 38 -1 37 35
-4 80 -3 81 38 81 51 0 69 -16 75 -69 3 -24 11 -48 19 -52 10 -6 53 -3 65 5 1
1 -2 35 -8 76 -5 41 -6 83 -2 95 16 49 -2 106 -40 127 -20 12 -158 19 -199 10z
m169 -76 c4 -3 0 -17 -7 -31 -11 -21 -21 -25 -60 -25 -26 0 -49 2 -52 5 -12
12 6 57 25 64 20 8 82 -1 94 -13z"/>
<path d="M4176 843 c-2 -3 -31 -4 -64 -4 -42 0 -62 -4 -65 -14 -3 -7 -6 -77
-6 -155 l-1 -141 37 3 38 3 0 55 0 55 45 -3 c57 -4 70 -16 70 -61 0 -44 14
-61 51 -61 27 0 28 0 23 58 -3 31 -7 65 -9 75 -2 10 1 32 6 50 10 37 4 84 -16
111 -13 17 -98 40 -109 29z m43 -78 c6 -3 11 -15 11 -25 0 -23 -30 -33 -81
-28 -26 2 -34 8 -35 23 -1 34 16 46 57 41 21 -2 43 -7 48 -11z"/>
<path d="M1199 767 c-3 -130 -1 -217 4 -230 3 -8 35 -13 97 -15 121 -4 148 2
148 34 0 13 -6 25 -12 25 -6 1 -39 2 -73 4 -77 3 -93 9 -93 34 0 29 15 34 91
32 l69 -2 0 33 0 33 -70 1 c-78 1 -92 8 -83 42 4 17 12 23 32 22 14 -1 52 -2
84 -1 56 1 57 1 57 30 l0 30 -125 0 -125 1 -1 -73z"/>
<path d="M1476 820 c-6 -20 -1 -288 4 -294 7 -6 56 -9 132 -8 59 2 71 6 97 30
29 27 65 105 54 116 -3 3 -7 22 -9 42 -7 82 -59 116 -187 124 -72 4 -88 2 -91
-10z m178 -81 c10 -10 20 -37 23 -61 7 -58 -16 -85 -78 -92 l-46 -6 -6 47 c-4
27 -5 57 -3 68 3 11 5 30 5 43 1 21 5 23 44 21 23 -2 50 -11 61 -20z"/>
<path d="M3187 826 c-14 -14 -16 -40 -16 -159 1 -78 3 -145 5 -148 2 -4 18 -4
36 0 33 7 33 8 31 59 l-2 52 60 0 c32 0 60 -1 62 -2 1 -2 17 11 33 28 20 21
33 46 38 74 6 39 4 46 -24 73 -28 28 -37 30 -118 34 -73 4 -91 2 -105 -11z
m167 -65 c38 -32 -35 -82 -90 -61 -25 10 -28 20 -18 56 4 17 13 20 49 19 24
-1 51 -7 59 -14z"/>
<path d="M3469 810 c-1 -14 -3 -38 -4 -55 -2 -16 -4 -43 -5 -60 -1 -37 8 -166
12 -171 5 -4 141 -8 201 -6 45 2 47 3 47 32 l0 30 -84 0 c-89 0 -104 9 -91 51
5 16 17 19 76 19 l69 0 0 30 0 29 -72 3 c-72 3 -73 3 -76 31 -2 19 1 28 10 26
7 -1 45 -1 84 0 l71 1 1 29 c1 37 -19 43 -146 39 -91 -3 -92 -3 -93 -28z"/>
<path d="M3763 833 c-21 -4 -23 -10 -25 -71 -2 -84 2 -236 7 -240 1 -2 19 0
38 3 l34 7 -9 39 c-15 56 -7 67 46 67 50 0 76 -22 76 -64 0 -42 11 -54 47 -54
l35 0 -7 53 c-3 28 -11 64 -16 79 -8 18 -7 32 0 46 19 37 13 80 -16 111 -26
27 -33 29 -108 28 -44 0 -90 -2 -102 -4z m140 -67 c56 -13 21 -59 -48 -63 -46
-3 -66 17 -44 43 6 8 8 14 3 15 -5 1 2 4 16 8 14 4 30 7 35 5 6 -1 22 -5 38
-8z"/>
<path d="M4310 834 c0 -7 42 -82 76 -135 28 -45 31 -55 33 -126 l1 -43 41 0
c34 0 39 3 35 18 -18 60 -6 114 43 185 15 23 36 57 45 75 l17 32 -40 0 c-36 0
-41 -3 -71 -54 -18 -30 -38 -52 -44 -50 -11 4 -24 24 -47 74 -9 21 -20 26 -50
27 -22 1 -39 0 -39 -3z"/>
<path d="M1920 775 c0 -32 55 -119 69 -110 4 2 8 -7 9 -20 l2 -23 -39 21 c-22
12 -42 19 -46 16 -11 -11 16 -54 48 -77 72 -52 73 -53 55 -50 -42 7 10 -73 64
-99 21 -10 38 -21 38 -25 0 -5 -21 -8 -47 -8 -27 0 -54 -4 -62 -9 -31 -20 89
-67 144 -57 37 7 30 -9 -12 -29 -32 -15 -34 -19 -18 -28 26 -14 159 -8 187 9
4 3 8 11 8 18 0 16 -83 31 -102 20 -8 -5 -9 -2 -4 11 7 19 -20 58 -35 49 -5
-3 -17 -1 -26 5 -17 9 -17 10 -1 16 35 14 -14 81 -81 112 -15 6 -20 12 -13 12
18 1 6 39 -21 69 -16 17 -18 25 -9 31 23 14 1 73 -46 118 -47 46 -62 53 -62
28z"/>
<path d="M2155 508 c6 -42 69 -148 86 -148 5 0 9 11 9 25 0 31 17 33 30 3 19
-48 67 -87 115 -95 46 -8 44 7 -8 61 -39 41 -65 58 -99 67 -37 10 -47 18 -57
45 -15 42 -49 84 -68 84 -12 0 -13 -8 -8 -42z"/>
<path d="M2744 528 c-27 -30 -56 -78 -48 -78 4 0 1 -7 -6 -15 -7 -8 -22 -15
-34 -15 -36 0 -116 -57 -131 -93 -12 -27 -11 -32 1 -35 8 -2 14 -8 14 -14 0
-8 -31 -9 -100 -4 -90 5 -106 4 -150 -15 -53 -23 -61 -34 -32 -43 30 -9 119
-1 135 13 21 17 42 5 25 -14 -33 -37 -39 -46 -33 -55 9 -14 37 0 64 32 l23 29
26 -31 c24 -29 55 -39 66 -21 3 5 -8 19 -24 32 -41 33 -37 41 11 24 66 -24
170 -14 137 12 -7 6 -23 14 -35 17 -39 12 -27 29 15 21 58 -12 95 -13 125 -2
35 12 34 19 -4 36 -35 16 -32 23 13 27 58 4 89 13 115 29 14 9 23 18 21 20 -6
6 -71 17 -106 17 -27 0 -31 2 -21 14 6 8 20 14 31 14 23 0 84 57 93 87 l6 22
-48 -16 c-26 -9 -60 -25 -74 -36 -32 -23 -56 -70 -39 -75 14 -5 -7 -32 -25
-32 -21 0 -36 -25 -23 -38 7 -7 10 -12 8 -13 -6 -1 -69 -7 -97 -8 -18 -1 -23
-7 -23 -27 0 -22 -3 -25 -32 -21 -32 3 -53 27 -24 27 9 0 16 3 16 8 0 4 16 18
35 31 20 13 38 34 41 47 7 29 24 32 24 5 0 -26 18 -37 26 -17 3 9 12 16 18 16
14 0 32 34 50 95 20 64 6 83 -30 43z"/>
</g>
</svg>
